<?xml version="1.0" encoding="UTF-8" standalone="no"?><svg width="40" height="40" viewBox="0 0 22 19" fill="none" xmlns="http://www.w3.org/2000/svg">
<path d="M11.8619 9.49998L16.3169 5.65248C16.417 5.55151 16.4694 5.42164 16.4634 5.28881C16.4575 5.15598 16.3937 5.02998 16.2849 4.93598C16.176 4.84199 16.0301 4.78692 15.8763 4.78179C15.7225 4.77666 15.5722 4.82184 15.4553 4.90831L11.0003 8.75581L6.54526 4.90303C6.42835 4.81657 6.27797 4.77139 6.12417 4.77652C5.97036 4.78165 5.82447 4.83671 5.71563 4.93071C5.6068 5.0247 5.54304 5.1507 5.5371 5.28353C5.53116 5.41636 5.58347 5.54623 5.68359 5.6472L10.1386 9.49998L5.67748 13.3475C5.61351 13.3948 5.56155 13.453 5.52487 13.5185C5.48819 13.584 5.46757 13.6553 5.46432 13.728C5.46107 13.8007 5.47525 13.8731 5.50598 13.9409C5.5367 14.0086 5.5833 14.0701 5.64286 14.1215C5.70241 14.173 5.77364 14.2132 5.85206 14.2398C5.93048 14.2663 6.0144 14.2785 6.09857 14.2757C6.18273 14.2729 6.26531 14.2551 6.34113 14.2234C6.41694 14.1918 6.48436 14.1469 6.53914 14.0916L11.0003 10.2441L15.4553 14.0916C15.5722 14.1781 15.7225 14.2233 15.8763 14.2182C16.0301 14.213 16.176 14.158 16.2849 14.064C16.3937 13.97 16.4575 13.844 16.4634 13.7111C16.4694 13.5783 16.417 13.4484 16.3169 13.3475L11.8619 9.49998Z" fill="white"/>
</svg>
